# Blender v2.93.6 OBJ File: 'grass_blade_1.blend'
# www.blender.org
mtllib grass_blade_1.mtl
o grass_blade_1
v -0.349592 -0.487803 0.459991
v -0.090402 -0.497320 0.282801
v 0.189915 -0.153542 0.250993
v -0.067950 -0.136088 0.427714
v -0.154051 -0.507358 0.353525
v 0.123063 -0.182823 0.322851
v -0.201330 -0.504046 0.330939
v 0.075125 -0.183464 0.300500
v -0.322181 -0.491961 0.341290
v -0.042926 -0.154581 0.309860
v 0.137615 0.121020 0.241670
v 0.252643 0.081465 0.233793
v 0.301282 0.084580 0.255800
v 0.216313 0.126060 0.332727
v 0.115162 0.148582 0.358264
v 0.409021 0.514509 0.154708
v 0.519232 0.462699 0.149407
v 0.568712 0.467965 0.170963
v 0.599121 0.523029 0.245032
v 0.390392 0.551794 0.269253
v 0.680195 0.970510 0.030466
v 0.785053 0.908390 0.028250
v 0.836271 0.917002 0.048804
v 0.763078 0.984444 -0.031304
v 0.666616 1.017514 0.142108
v 0.873904 1.409074 -0.261385
v 0.970427 1.334683 -0.258614
v 1.022865 1.345088 -0.238787
v 0.958754 1.425908 -0.173861
v 0.866691 1.465454 -0.153556
v 1.177452 1.891465 -0.496834
v 1.264131 1.806211 -0.488040
v 1.318944 1.819239 -0.379947
v 1.266149 1.912544 -0.321942
v 1.178700 1.957182 -0.394185
v 1.539647 2.334501 -0.674164
v 1.615571 2.240425 -0.658540
v 1.673385 2.255915 -0.552354
v 1.633201 2.359562 -0.502352
v 1.550544 2.408132 -0.577635
v 1.966450 2.729417 -0.854081
v 2.032218 2.629188 -0.832006
v 2.090358 2.644875 -0.726026
v 2.060528 2.754797 -0.682608
v 1.983951 2.807048 -0.761749
v 2.421317 3.033829 -0.994388
v 2.476953 2.929069 -0.966302
v 2.532099 2.943421 -0.858553
v 2.510558 3.057046 -0.820041
v 2.442087 3.112921 -0.903996
v 2.846365 3.269004 -1.068972
v 2.891237 3.160888 -1.034971
v 2.945819 3.175061 -0.926907
v 2.934685 3.291933 -0.894115
v 2.873218 3.349993 -0.981918
v 3.260184 3.434180 -1.174345
v 3.297261 3.324541 -1.136091
v 3.354292 3.339193 -1.029361
v 3.352468 3.457882 -1.001652
v 3.294303 3.516586 -1.091265
v 3.596683 3.541372 -1.214532
v 3.628415 3.499853 -1.201292
v 3.683864 3.505299 -1.166680
v 3.686409 3.550184 -1.158526
v 3.632524 3.572478 -1.188100
vt 0.461157 0.176424
vt 0.460804 0.176789
vt 0.461975 0.177625
vt 0.462350 0.177284
vt 0.338661 0.402480
vt 0.338407 0.402920
vt 0.339614 0.403543
vt 0.339935 0.403149
vt 0.325832 0.143370
vt 0.325327 0.143322
vt 0.325028 0.144630
vt 0.325531 0.144695
vt 0.566612 0.316742
vt 0.566338 0.316314
vt 0.565067 0.316928
vt 0.565397 0.317314
vt 0.672176 0.364142
vt 0.671841 0.363760
vt 0.670786 0.364787
vt 0.671164 0.365126
vt 0.650860 0.396712
vt 0.650473 0.397040
vt 0.650665 0.397510
vt 0.651172 0.397472
vt 0.651292 0.396979
vt 0.310022 0.398825
vt 0.310157 0.399314
vt 0.310664 0.399337
vt 0.310842 0.398862
vt 0.310445 0.398545
vt 0.544498 0.337540
vt 0.544867 0.337889
vt 0.545815 0.337254
vt 0.545480 0.336873
vt 0.320327 0.182443
vt 0.320831 0.182505
vt 0.321157 0.181400
vt 0.320652 0.181349
vt 0.342454 0.408428
vt 0.342811 0.408067
vt 0.341863 0.407324
vt 0.341545 0.407720
vt 0.495285 0.214536
vt 0.495704 0.214250
vt 0.494804 0.213418
vt 0.494398 0.213722
vt 0.677704 0.352801
vt 0.678131 0.353076
vt 0.678748 0.352062
vt 0.678344 0.351755
vt 0.655750 0.390795
vt 0.655372 0.391134
vt 0.655578 0.391599
vt 0.656083 0.391546
vt 0.656189 0.391050
vt 0.550316 0.333274
vt 0.550720 0.333582
vt 0.551974 0.332487
vt 0.551607 0.332137
vt 0.317716 0.207709
vt 0.318220 0.207775
vt 0.318540 0.206130
vt 0.318035 0.206075
vt 0.328820 0.398373
vt 0.329230 0.398073
vt 0.327997 0.396851
vt 0.327627 0.397198
vt 0.502721 0.225003
vt 0.503160 0.224748
vt 0.502047 0.223379
vt 0.501622 0.223658
vt 0.682624 0.344581
vt 0.683090 0.344780
vt 0.683861 0.343242
vt 0.683414 0.343003
vt 0.661262 0.379373
vt 0.660898 0.379726
vt 0.661121 0.380182
vt 0.661624 0.380110
vt 0.661711 0.379610
vt 0.545481 0.340023
vt 0.545914 0.340288
vt 0.547279 0.338786
vt 0.546875 0.338480
vt 0.315254 0.234087
vt 0.315756 0.234163
vt 0.316112 0.232148
vt 0.315608 0.232089
vt 0.324965 0.395761
vt 0.325410 0.395517
vt 0.324105 0.393865
vt 0.323692 0.394159
vt 0.515227 0.247002
vt 0.515683 0.246778
vt 0.514510 0.245004
vt 0.514064 0.245247
vt 0.683899 0.343767
vt 0.684388 0.343904
vt 0.685122 0.341958
vt 0.684648 0.341777
vt 0.669503 0.358268
vt 0.669166 0.358648
vt 0.669423 0.359085
vt 0.669919 0.358976
vt 0.669968 0.358471
vt 0.540673 0.346716
vt 0.541136 0.346923
vt 0.542379 0.345334
vt 0.541946 0.345069
vt 0.313592 0.252024
vt 0.314093 0.252106
vt 0.314445 0.250110
vt 0.313943 0.250038
vt 0.323485 0.395540
vt 0.323960 0.395364
vt 0.322805 0.393614
vt 0.322359 0.393855
vt 0.524343 0.264278
vt 0.524816 0.264093
vt 0.523749 0.262248
vt 0.523290 0.262465
vt 0.684152 0.345007
vt 0.684653 0.345085
vt 0.685243 0.343089
vt 0.684752 0.342963
vt 0.677598 0.325100
vt 0.677303 0.325514
vt 0.677605 0.325922
vt 0.678087 0.325760
vt 0.678082 0.325253
vt 0.540847 0.339669
vt 0.541333 0.339815
vt 0.542526 0.337749
vt 0.542062 0.337542
vt 0.311267 0.277928
vt 0.311766 0.278020
vt 0.311961 0.275627
vt 0.311459 0.275550
vt 0.318437 0.385624
vt 0.318935 0.385526
vt 0.317790 0.383332
vt 0.317312 0.383503
vt 0.531409 0.277674
vt 0.531894 0.277523
vt 0.530969 0.275194
vt 0.530495 0.275374
vt 0.684185 0.351251
vt 0.684693 0.351263
vt 0.685332 0.348898
vt 0.684829 0.348830
vt 0.684659 0.260021
vt 0.684474 0.260493
vt 0.684865 0.260816
vt 0.685293 0.260543
vt 0.685166 0.260051
vt 0.533076 0.350768
vt 0.533577 0.350851
vt 0.534531 0.348614
vt 0.534045 0.348468
vt 0.308873 0.303939
vt 0.309370 0.304045
vt 0.309576 0.301604
vt 0.309076 0.301516
vt 0.319109 0.384929
vt 0.319616 0.384907
vt 0.318741 0.382540
vt 0.318243 0.382638
vt 0.541523 0.305115
vt 0.542017 0.304998
vt 0.541266 0.302560
vt 0.540780 0.302704
vt 0.683955 0.356898
vt 0.684460 0.356849
vt 0.684889 0.354392
vt 0.684382 0.354383
vt 0.658335 0.151009
vt 0.658394 0.151513
vt 0.658892 0.151613
vt 0.659140 0.151170
vt 0.658796 0.150797
vt 0.527577 0.353734
vt 0.528084 0.353762
vt 0.528743 0.351371
vt 0.528242 0.351288
vt 0.305990 0.328051
vt 0.306487 0.328154
vt 0.306587 0.325674
vt 0.306090 0.325572
vt 0.320311 0.379112
vt 0.320818 0.379146
vt 0.320203 0.376684
vt 0.319696 0.376707
vt 0.548760 0.325362
vt 0.549262 0.325281
vt 0.548776 0.322757
vt 0.548281 0.322870
vt 0.683607 0.363587
vt 0.684108 0.363503
vt 0.684427 0.360988
vt 0.683922 0.361037
vt 0.577075 0.068274
vt 0.577388 0.068674
vt 0.577865 0.068500
vt 0.577847 0.067993
vt 0.577359 0.067853
vt 0.522314 0.349396
vt 0.522821 0.349373
vt 0.523072 0.347084
vt 0.522565 0.347057
vt 0.302507 0.350944
vt 0.303007 0.351030
vt 0.302900 0.348744
vt 0.302402 0.348644
vt 0.323382 0.366051
vt 0.323884 0.366128
vt 0.323566 0.363821
vt 0.323060 0.363786
vt 0.554822 0.341440
vt 0.555328 0.341401
vt 0.555228 0.339034
vt 0.554726 0.339112
vt 0.682987 0.368042
vt 0.683484 0.367942
vt 0.683742 0.365603
vt 0.683241 0.365686
vt 0.471110 0.043858
vt 0.471581 0.044049
vt 0.471907 0.043660
vt 0.471639 0.043229
vt 0.471146 0.043352
vt 0.514709 0.333188
vt 0.515211 0.333113
vt 0.515217 0.331115
vt 0.514710 0.331141
vt 0.301148 0.361659
vt 0.301649 0.361741
vt 0.301332 0.359772
vt 0.300832 0.359687
vt 0.329126 0.348192
vt 0.329618 0.348318
vt 0.329425 0.346285
vt 0.328924 0.346207
vt 0.559087 0.342786
vt 0.559595 0.342781
vt 0.559777 0.340715
vt 0.559271 0.340752
vt 0.682159 0.367904
vt 0.682650 0.367775
vt 0.682967 0.365753
vt 0.682469 0.365853
vt 0.397941 0.073479
vt 0.398449 0.073494
vt 0.398619 0.073016
vt 0.398217 0.072706
vt 0.397798 0.072992
vt 0.512122 0.359581
vt 0.512618 0.359470
vt 0.512436 0.357608
vt 0.511934 0.357684
vt 0.299106 0.377894
vt 0.299605 0.377987
vt 0.299443 0.376112
vt 0.298942 0.376030
vt 0.330824 0.355695
vt 0.331303 0.355864
vt 0.331405 0.353942
vt 0.330914 0.353815
vt 0.562200 0.374254
vt 0.562707 0.374265
vt 0.562918 0.372336
vt 0.562411 0.372340
vt 0.681699 0.367261
vt 0.682180 0.367098
vt 0.682218 0.365191
vt 0.681727 0.365321
vt 0.379907 0.099189
vt 0.380413 0.099156
vt 0.380538 0.098664
vt 0.380109 0.098393
vt 0.379719 0.098717
vt 0.511012 0.372190
vt 0.511501 0.372055
vt 0.511319 0.370545
vt 0.510824 0.370656
vt 0.298480 0.382754
vt 0.298981 0.382840
vt 0.298911 0.381328
vt 0.298412 0.381234
vt 0.331087 0.361455
vt 0.331558 0.361644
vt 0.331708 0.360118
vt 0.331229 0.359948
vt 0.563766 0.385146
vt 0.564273 0.385176
vt 0.564428 0.383631
vt 0.563920 0.383620
vt 0.681696 0.368464
vt 0.682174 0.368294
vt 0.682118 0.366749
vt 0.681637 0.366912
vt 0.362146 0.116872
vt 0.362647 0.116791
vt 0.362725 0.116290
vt 0.362272 0.116061
vt 0.361914 0.116421
vn 0.5176 -0.3461 0.7825
vn -0.6925 0.5321 -0.4871
vn 0.3808 -0.4055 -0.8310
vn -0.0858 -0.0212 -0.9961
vn -0.7654 0.6020 -0.2273
vn -0.1075 0.7872 -0.6072
vn 0.0158 -0.9761 0.2168
vn -0.1207 -0.1644 -0.9790
vn 0.3855 -0.4588 -0.8005
vn 0.0708 -0.0532 0.9961
vn 0.4655 -0.1916 0.8641
vn -0.8374 0.4788 -0.2636
vn 0.2069 0.9382 -0.2774
vn -0.1138 -0.1386 -0.9838
vn 0.3939 -0.4522 -0.8002
vn 0.6985 -0.4611 0.5472
vn 0.1704 0.0768 0.9824
vn -0.8185 0.4986 -0.2854
vn 0.1801 0.8618 -0.4743
vn -0.1326 -0.1860 -0.9736
vn 0.3963 -0.4534 -0.7984
vn 0.4189 0.1901 0.8879
vn 0.5547 0.0963 0.8265
vn -0.8566 0.4316 -0.2828
vn -0.3894 -0.0297 -0.9206
vn -0.2950 -0.4387 -0.8488
vn 0.3803 -0.6243 -0.6823
vn 0.2602 0.3338 0.9060
vn 0.7204 0.0210 0.6932
vn -0.9373 0.2725 -0.2171
vn 0.3456 0.7389 -0.5785
vn -0.2162 -0.3150 -0.9241
vn 0.6673 -0.5928 -0.4509
vn 0.6061 -0.1452 0.7821
vn -0.0723 0.4075 0.9104
vn -0.8682 0.4181 -0.2671
vn 0.6602 0.6289 -0.4106
vn -0.1445 -0.2609 -0.9545
vn 0.6913 -0.6684 -0.2744
vn 0.5848 -0.1600 0.7952
vn -0.3322 0.5760 0.7469
vn -0.7917 0.5221 -0.3170
vn 0.7240 0.5066 -0.4681
vn -0.1351 -0.2828 -0.9496
vn 0.6134 -0.7574 -0.2239
vn 0.5249 -0.1908 0.8295
vn -0.2874 0.6389 0.7135
vn -0.7096 0.5982 -0.3724
vn 0.7762 0.4024 -0.4854
vn -0.0960 -0.2899 -0.9522
vn 0.5196 -0.8398 -0.1574
vn 0.4186 -0.2262 0.8796
vn -0.2516 0.6885 0.6802
vn -0.5882 0.6706 -0.4520
vn 0.8273 0.3146 -0.4654
vn -0.0064 -0.2828 -0.9592
vn 0.4691 -0.8745 -0.1229
vn 0.2932 -0.2444 0.9243
vn -0.2669 0.6978 0.6648
vn -0.4831 0.7107 -0.5115
vn 0.8609 0.2118 -0.4626
vn -0.0963 -0.3459 -0.9333
vn 0.3593 -0.9312 -0.0617
vn 0.3216 -0.2189 0.9212
vn -0.1496 0.7766 0.6120
vn -0.4270 0.7238 -0.5421
vn 0.8677 0.1256 -0.4809
vn -0.0109 -0.3269 -0.9450
vn 0.4029 -0.8945 -0.1935
vn 0.4594 -0.1922 0.8672
vn 0.0223 0.8365 0.5475
vn -0.3009 0.7517 -0.5869
vn 0.5165 0.1246 -0.8471
usemtl mat10.006
s 1
f 1/1/1 2/2/1 3/3/1 4/4/1
f 2/5/2 5/6/2 6/7/2 3/8/2
f 5/9/3 7/10/3 8/11/3 6/12/3
f 7/13/4 9/14/4 10/15/4 8/16/4
f 9/17/5 1/18/5 4/19/5 10/20/5
f 4/21/6 3/22/6 6/23/6 8/24/6 10/25/6
f 9/26/7 7/27/7 5/28/7 2/29/7 1/30/7
f 11/31/8 12/32/8 8/33/8 10/34/8
f 12/35/9 13/36/9 6/37/9 8/38/9
f 13/39/10 14/40/10 3/41/10 6/42/10
f 14/43/11 15/44/11 4/45/11 3/46/11
f 15/47/12 11/48/12 10/49/12 4/50/12
f 15/51/13 14/52/13 13/53/13 12/54/13 11/55/13
f 16/56/14 17/57/14 12/58/14 11/59/14
f 17/60/15 18/61/15 13/62/15 12/63/15
f 18/64/16 19/65/16 14/66/16 13/67/16
f 19/68/17 20/69/17 15/70/17 14/71/17
f 20/72/18 16/73/18 11/74/18 15/75/18
f 20/76/19 19/77/19 18/78/19 17/79/19 16/80/19
f 21/81/20 22/82/20 17/83/20 16/84/20
f 22/85/21 23/86/21 18/87/21 17/88/21
f 23/89/22 24/90/22 19/91/22 18/92/22
f 24/93/23 25/94/23 20/95/23 19/96/23
f 25/97/24 21/98/24 16/99/24 20/100/24
f 25/101/25 24/102/25 23/103/25 22/104/25 21/105/25
f 26/106/26 27/107/26 22/108/26 21/109/26
f 27/110/27 28/111/27 23/112/27 22/113/27
f 28/114/28 29/115/28 24/116/28 23/117/28
f 29/118/29 30/119/29 25/120/29 24/121/29
f 30/122/30 26/123/30 21/124/30 25/125/30
f 30/126/31 29/127/31 28/128/31 27/129/31 26/130/31
f 31/131/32 32/132/32 27/133/32 26/134/32
f 32/135/33 33/136/33 28/137/33 27/138/33
f 33/139/34 34/140/34 29/141/34 28/142/34
f 34/143/35 35/144/35 30/145/35 29/146/35
f 35/147/36 31/148/36 26/149/36 30/150/36
f 35/151/37 34/152/37 33/153/37 32/154/37 31/155/37
f 36/156/38 37/157/38 32/158/38 31/159/38
f 37/160/39 38/161/39 33/162/39 32/163/39
f 38/164/40 39/165/40 34/166/40 33/167/40
f 39/168/41 40/169/41 35/170/41 34/171/41
f 40/172/42 36/173/42 31/174/42 35/175/42
f 40/176/43 39/177/43 38/178/43 37/179/43 36/180/43
f 41/181/44 42/182/44 37/183/44 36/184/44
f 42/185/45 43/186/45 38/187/45 37/188/45
f 43/189/46 44/190/46 39/191/46 38/192/46
f 44/193/47 45/194/47 40/195/47 39/196/47
f 45/197/48 41/198/48 36/199/48 40/200/48
f 45/201/49 44/202/49 43/203/49 42/204/49 41/205/49
f 46/206/50 47/207/50 42/208/50 41/209/50
f 47/210/51 48/211/51 43/212/51 42/213/51
f 48/214/52 49/215/52 44/216/52 43/217/52
f 49/218/53 50/219/53 45/220/53 44/221/53
f 50/222/54 46/223/54 41/224/54 45/225/54
f 50/226/55 49/227/55 48/228/55 47/229/55 46/230/55
f 51/231/56 52/232/56 47/233/56 46/234/56
f 52/235/57 53/236/57 48/237/57 47/238/57
f 53/239/58 54/240/58 49/241/58 48/242/58
f 54/243/59 55/244/59 50/245/59 49/246/59
f 55/247/60 51/248/60 46/249/60 50/250/60
f 55/251/61 54/252/61 53/253/61 52/254/61 51/255/61
f 56/256/62 57/257/62 52/258/62 51/259/62
f 57/260/63 58/261/63 53/262/63 52/263/63
f 58/264/64 59/265/64 54/266/64 53/267/64
f 59/268/65 60/269/65 55/270/65 54/271/65
f 60/272/66 56/273/66 51/274/66 55/275/66
f 60/276/67 59/277/67 58/278/67 57/279/67 56/280/67
f 61/281/68 62/282/68 57/283/68 56/284/68
f 62/285/69 63/286/69 58/287/69 57/288/69
f 63/289/70 64/290/70 59/291/70 58/292/70
f 64/293/71 65/294/71 60/295/71 59/296/71
f 65/297/72 61/298/72 56/299/72 60/300/72
f 65/301/73 64/302/73 63/303/73 62/304/73 61/305/73
