# Blender v2.93.6 OBJ File: 'trowel.blend'
# www.blender.org
mtllib trowel.mtl
v -0.935619 2.892663 -0.182463
v 0.379862 -0.824605 0.619321
v -0.643700 2.886453 0.913094
v 0.752301 -0.565241 -1.359434
v -0.271261 3.145818 -1.065661
v -0.583501 2.944246 -0.095224
v 0.806921 -1.568113 -0.439179
v -0.364370 3.080976 -0.570972
v -0.550590 2.951294 0.418405
vt 0.388781 0.174822
vt 0.394855 0.191318
vt 0.393233 0.174395
vt 0.271237 0.217137
vt 0.267054 0.200063
vt 0.263124 0.202198
vt 0.175146 0.269666
vt 0.176000 0.268490
vt 0.171566 0.267908
vt 0.351656 0.203643
vt 0.354340 0.198664
vt 0.345512 0.183463
vt 0.320561 0.189761
vt 0.322845 0.207190
vt 0.328010 0.209497
vt 0.275758 0.208550
vt 0.286468 0.190376
vt 0.284473 0.189616
vt 0.247626 0.171183
vt 0.245743 0.170510
vt 0.240025 0.186520
vt 0.242446 0.191632
vt 0.247559 0.189211
vt 0.253276 0.173201
vt 0.251393 0.172528
vt 0.206067 0.193311
vt 0.210281 0.172897
vt 0.208329 0.172337
vt 0.189248 0.282499
vt 0.192637 0.284799
vt 0.189948 0.281226
vt 0.150034 0.196840
vt 0.150524 0.198918
vt 0.151495 0.200666
vt 0.147609 0.193671
vt 0.148581 0.195420
vn -0.9292 -0.2758 0.2460
vn -0.7657 -0.1619 -0.6224
vn -0.1562 0.9866 0.0472
vn -0.9266 -0.3548 -0.1246
vn -0.8922 -0.3308 -0.3076
vn 0.8574 0.2291 0.4608
vn 0.9466 0.2444 0.2102
vn 0.9522 0.2984 -0.0651
vn -0.1784 0.9732 0.1447
vn -0.4977 0.8671 0.0200
usemtl mat22
s 1
f 1/1/1 2/2/1 3/3/1
f 4/4/2 1/5/2 5/6/2
f 6/7/3 1/8/3 3/9/3
f 7/10/4 2/11/4 1/12/4
f 1/13/5 4/14/5 7/15/5
f 7/16/6 8/17/6 6/18/6
f 9/19/7 3/20/7 2/21/7 7/22/7
f 7/22/7 4/23/7 5/24/7 8/25/7
f 7/26/8 6/27/8 9/28/8
f 6/29/9 5/30/9 1/31/9
f 6/32/10 8/33/10 5/34/10
f 3/35/10 9/36/10 6/32/10
v -0.343218 2.183978 -0.150572
v -0.418195 2.561754 -0.342696
v -0.413201 4.381005 0.017813
v -0.408003 4.382092 0.141907
v -0.476923 4.361550 -0.087013
v -0.582097 4.328942 -0.144481
v -0.651904 2.498449 -0.410944
v -0.700540 4.291918 -0.139196
v -0.762429 2.747485 -0.283684
v -0.800513 4.260398 -0.072571
v -0.855235 4.242828 0.037541
v -0.799434 2.641933 0.019627
v -0.850037 4.243917 0.161635
v -0.685463 2.435278 -0.022386
v -0.786315 4.263371 0.266460
v -0.494441 2.508657 0.062393
v -0.681141 4.295979 0.323930
v -0.562698 4.333004 0.318644
v -0.462725 4.364523 0.252019
v -0.607755 2.191208 -0.230934
vt 0.200447 0.143988
vt 0.201509 0.142671
vt 0.201468 0.135376
vt 0.200995 0.135279
vt 0.161050 0.185974
vt 0.159065 0.179100
vt 0.158577 0.179110
vt 0.153623 0.243752
vt 0.149949 0.237765
vt 0.149485 0.237916
vt 0.166167 0.254073
vt 0.167051 0.253641
vt 0.162335 0.248284
vt 0.161904 0.248490
vt 0.222938 0.203191
vt 0.222655 0.202043
vt 0.218694 0.197522
vt 0.218281 0.197782
vt 0.274268 0.155213
vt 0.271501 0.149858
vt 0.271085 0.150114
vt 0.333381 0.136705
vt 0.334644 0.136570
vt 0.332485 0.130620
vt 0.332047 0.130828
vt 0.424323 0.242527
vt 0.424127 0.243417
vt 0.428258 0.237414
vt 0.427854 0.237280
vt 0.422607 0.246623
vt 0.423445 0.246860
vt 0.427315 0.240856
vt 0.426854 0.240697
vt 0.399472 0.249055
vt 0.404371 0.243709
vt 0.403939 0.243481
vt 0.359292 0.209430
vt 0.364476 0.204234
vt 0.364065 0.203970
vt 0.323945 0.171619
vt 0.323811 0.173250
vt 0.328992 0.166229
vt 0.328602 0.165947
vt 0.160507 0.250038
vt 0.160938 0.250269
vt 0.161426 0.250254
vt 0.161842 0.249997
vt 0.162073 0.249567
vt 0.162058 0.249078
vt 0.161801 0.248663
vt 0.161370 0.248432
vt 0.160882 0.248447
vt 0.160467 0.248704
vt 0.160235 0.249134
vt 0.160250 0.249622
vt 0.384131 0.287356
vt 0.383673 0.286654
vt 0.383096 0.286953
vt 0.382201 0.287150
vt 0.382642 0.288020
vt 0.383653 0.287881
vt 0.345693 0.184079
vt 0.346690 0.186126
vt 0.347101 0.184901
vt 0.346954 0.183978
vt 0.325737 0.184087
vt 0.326899 0.184889
vt 0.325774 0.182905
vn 0.9800 0.0461 -0.1936
vn 0.8414 0.1028 -0.5306
vn 0.4409 0.1403 -0.8865
vn 0.1362 0.1376 -0.9811
vn -0.6177 0.0978 -0.7803
vn -0.8973 0.0388 -0.4397
vn -0.9960 -0.0338 -0.0824
vn -0.4501 -0.1308 0.8833
vn -0.3770 -0.1686 0.9107
vn 0.0864 -0.1354 0.9870
vn 0.5723 -0.0930 0.8147
vn 0.8138 -0.0621 0.5778
vn -0.2982 0.9545 0.0041
vn 0.1387 -0.9737 -0.1806
vn -0.9359 -0.3312 -0.1201
vn -0.9256 -0.2814 -0.2532
usemtl mat22
s 1
f 10/37/11 11/38/11 12/39/11 13/40/11
f 11/41/12 14/42/12 12/43/12
f 11/44/13 15/45/13 14/46/13
f 11/47/14 16/48/14 17/49/14 15/50/14
f 16/51/15 18/52/15 19/53/15 17/54/15
f 18/55/16 20/56/16 19/57/16
f 18/58/17 21/59/17 22/60/17 20/61/17
f 21/62/18 23/63/18 24/64/18 22/65/18
f 23/66/19 25/67/19 26/68/19 24/69/19
f 25/70/20 27/71/20 26/72/20
f 25/73/21 28/74/21 27/75/21
f 25/76/22 10/77/22 13/78/22 28/79/22
f 13/80/23 12/81/23 14/82/23 15/83/23 17/84/23 19/85/23 20/86/23 22/87/23 24/88/23 26/89/23 27/90/23 28/91/23
f 25/92/24 23/93/24 29/94/24 16/95/24 11/96/24 10/97/24
f 18/98/25 29/99/25 23/100/25 21/101/25
f 16/102/26 29/103/26 18/104/26
v -0.231505 4.244741 0.192342
v -0.251879 4.266090 -0.069679
v -1.061188 7.466543 0.242760
v -1.040813 7.445194 0.504781
v -0.397560 4.251985 -0.289579
v -1.206869 7.452437 0.022860
v -0.629509 4.206203 -0.408438
v -1.438818 7.406655 -0.095999
v -0.885574 4.141011 -0.394405
v -1.694887 7.341466 -0.081968
v -1.097149 4.073880 -0.251244
v -1.906461 7.274333 0.061195
v -1.207537 4.022796 -0.017312
v -2.016847 7.223250 0.295128
v -1.187163 4.001446 0.244709
v -1.996472 7.201900 0.557148
v -1.041482 4.015553 0.464610
v -1.850791 7.216005 0.777049
v -0.809533 4.061335 0.583468
v -1.618842 7.261789 0.895908
v -0.553464 4.126526 0.569437
v -1.362776 7.326978 0.881875
v -0.341890 4.193658 0.426275
v -1.151202 7.394110 0.738713
vt 0.463355 0.675172
vt 0.464371 0.675370
vt 0.466666 0.663592
vt 0.465649 0.663394
vt 0.408246 0.707086
vt 0.409272 0.706949
vt 0.407692 0.695054
vt 0.406665 0.695190
vt 0.399555 0.750660
vt 0.400508 0.750255
vt 0.395815 0.739211
vt 0.394862 0.739616
vt 0.427128 0.760641
vt 0.428014 0.760106
vt 0.421817 0.749831
vt 0.420930 0.750365
vt 0.475339 0.732807
vt 0.476219 0.732262
vt 0.469898 0.722062
vt 0.469018 0.722607
vt 0.539724 0.691467
vt 0.540661 0.691026
vt 0.535554 0.680167
vt 0.534617 0.680607
vt 0.613754 0.675370
vt 0.614770 0.675172
vt 0.612475 0.663394
vt 0.611459 0.663592
vt 0.668853 0.706949
vt 0.669879 0.707086
vt 0.671460 0.695190
vt 0.670433 0.695054
vt 0.677617 0.750255
vt 0.678570 0.750660
vt 0.683263 0.739616
vt 0.682310 0.739211
vt 0.650110 0.760106
vt 0.650997 0.760641
vt 0.657195 0.750365
vt 0.656308 0.749831
vt 0.601906 0.732262
vt 0.602786 0.732807
vt 0.609107 0.722607
vt 0.608227 0.722062
vt 0.537464 0.691026
vt 0.538401 0.691467
vt 0.543507 0.680607
vt 0.542571 0.680167
vt 0.425056 0.783657
vt 0.426042 0.783975
vt 0.427054 0.783758
vt 0.427822 0.783064
vt 0.428140 0.782078
vt 0.427923 0.781066
vt 0.427229 0.780298
vt 0.426244 0.779980
vt 0.425232 0.780197
vt 0.424463 0.780891
vt 0.424145 0.781876
vt 0.424362 0.782888
vt 0.653763 0.782888
vt 0.653980 0.781876
vt 0.653661 0.780891
vt 0.652893 0.780197
vt 0.651881 0.779980
vt 0.650896 0.780298
vt 0.650202 0.781066
vt 0.649985 0.782078
vt 0.650303 0.783064
vt 0.651071 0.783758
vt 0.652083 0.783975
vt 0.653068 0.783657
vn 0.9667 0.2498 -0.0548
vn 0.7985 0.2551 -0.5453
vn 0.4172 0.1922 -0.8882
vn -0.0744 0.0782 -0.9942
vn -0.5471 -0.0568 -0.8352
vn -0.8746 -0.1771 -0.4514
vn -0.9667 -0.2498 0.0548
vn -0.7985 -0.2551 0.5453
vn -0.4172 -0.1922 0.8882
vn 0.0744 -0.0782 0.9942
vn 0.5471 0.0568 0.8352
vn 0.8746 0.1771 0.4514
vn -0.2405 0.9657 0.0974
vn 0.2405 -0.9657 -0.0974
usemtl mat20
s 1
f 30/105/27 31/106/27 32/107/27 33/108/27
f 31/109/28 34/110/28 35/111/28 32/112/28
f 34/113/29 36/114/29 37/115/29 35/116/29
f 36/117/30 38/118/30 39/119/30 37/120/30
f 38/121/31 40/122/31 41/123/31 39/124/31
f 40/125/32 42/126/32 43/127/32 41/128/32
f 42/129/33 44/130/33 45/131/33 43/132/33
f 44/133/34 46/134/34 47/135/34 45/136/34
f 46/137/35 48/138/35 49/139/35 47/140/35
f 48/141/36 50/142/36 51/143/36 49/144/36
f 50/145/37 52/146/37 53/147/37 51/148/37
f 52/149/38 30/150/38 33/151/38 53/152/38
f 33/153/39 32/154/39 35/155/39 37/156/39 39/157/39 41/158/39 43/159/39 45/160/39 47/161/39 49/162/39 51/163/39 53/164/39
f 52/165/40 50/166/40 48/167/40 46/168/40 44/169/40 42/170/40 40/171/40 38/172/40 36/173/40 34/174/40 31/175/40 30/176/40
