# Blender v2.93.6 OBJ File: 'roses.blend'
# www.blender.org
mtllib grass.mtl
o Tuft_of_grass
v 0.314722 3.236612 0.543694
v 0.314722 3.236610 0.350451
v 0.314722 2.015443 0.135713
v 0.314722 2.015443 0.392689
v 0.314722 5.678946 1.382506
v 0.314722 5.678946 1.341727
v 0.314722 4.457778 0.748344
v 0.314722 4.457778 0.868059
v 0.314722 -0.426894 -0.036969
v 0.314722 -0.426894 0.277508
v 0.314722 0.794275 0.258243
v 0.314722 0.794275 -0.017703
v 0.176780 3.244403 -0.741621
v 0.261767 3.240360 -0.568155
v 0.259650 2.016833 -0.379041
v 0.146634 2.022209 -0.609719
v 0.000989 5.700021 -1.487291
v 0.018925 5.699168 -1.450684
v 0.183335 4.467719 -0.921677
v 0.130684 4.470223 -1.029143
v 0.142479 -0.424849 -0.231332
v 0.004172 -0.418270 -0.513624
v 0.109202 0.800362 -0.492684
v 0.230565 0.794589 -0.244977
v -0.451903 3.236612 -0.027755
v -0.259395 3.236610 -0.010914
v -0.045471 2.015443 0.007802
v -0.301471 2.015443 -0.014596
v -1.287524 5.678946 -0.100862
v -1.246899 5.678946 -0.097309
v -0.655773 4.457778 -0.045592
v -0.775033 4.457778 -0.056026
v 0.126550 -0.426894 0.022852
v -0.186729 -0.426894 -0.004556
v -0.167539 0.794275 -0.002877
v 0.107358 0.794275 0.021173
v 0.840545 3.244403 -0.053149
v 0.660332 3.240360 0.016397
v 0.472123 2.016833 -0.002195
v 0.711772 2.022209 -0.094679
v 1.598698 5.700022 -0.163279
v 1.560669 5.699168 -0.148604
v 1.019345 4.467719 -0.030926
v 1.130988 4.470225 -0.074011
v 0.335187 -0.424849 -0.131798
v 0.628459 -0.418270 -0.244973
v 0.598444 0.800362 -0.142167
v 0.341101 0.794588 -0.042856
v -0.216623 2.156511 0.948348
v -0.068590 2.156511 0.824136
v 0.095910 1.241804 0.686104
v -0.100945 1.241804 0.851285
v -0.859187 3.985924 1.487527
v -0.827950 3.985925 1.461315
v -0.373390 3.071218 1.079896
v -0.465100 3.071218 1.156849
v 0.228193 -0.587608 0.575108
v -0.012710 -0.587608 0.777247
v 0.002045 0.327099 0.764866
v 0.213434 0.327099 0.587489
v -0.271642 2.156511 -0.006239
v -0.160803 2.156511 0.152056
v -0.037634 1.241804 0.327960
v -0.185031 1.241804 0.117456
v -0.752765 3.985925 -0.693353
v -0.729376 3.985925 -0.659949
v -0.389024 3.071218 -0.173878
v -0.457691 3.071218 -0.271944
v 0.061413 -0.587608 0.469412
v -0.118965 -0.587608 0.211806
v -0.107915 0.327099 0.227588
v 0.050362 0.327099 0.453630
v 0.578579 2.162349 0.967508
v 0.409467 2.159319 0.874159
v 0.302730 1.242846 0.718033
v 0.527620 1.246873 0.842169
v 1.150277 4.001709 1.477496
v 1.114589 4.001070 1.457798
v 0.676488 3.078663 1.118761
v 0.781255 3.080539 1.176592
v 0.313991 -0.586076 0.529827
v 0.589199 -0.581149 0.681738
v 0.491151 0.331658 0.724828
v 0.249660 0.327334 0.591527
v 0.679318 2.162348 0.016498
v 0.601065 2.159320 0.193103
v 0.454833 1.242846 0.313043
v 0.558899 1.246873 0.078187
v 1.137540 4.001710 -0.597472
v 1.121027 4.001070 -0.560204
v 0.821463 3.078663 -0.094219
v 0.869944 3.080540 -0.203630
v 0.266366 -0.586078 0.318228
v 0.393714 -0.581149 0.030824
v 0.445183 0.331658 0.124744
v 0.333437 0.327333 0.376935
v -0.451903 2.156511 -0.624522
v -0.259395 2.156511 -0.607681
v -0.045471 1.241804 -0.588965
v -0.301471 1.241804 -0.611363
v -1.287524 3.985925 -0.697629
v -1.246899 3.985925 -0.694076
v -0.655773 3.071218 -0.642359
v -0.775033 3.071218 -0.652793
v 0.126550 -0.587607 -0.573915
v -0.186729 -0.587607 -0.601323
v -0.167539 0.327099 -0.599644
v 0.107358 0.327099 -0.575594
v 0.477357 2.156512 -1.133145
v 0.310004 2.156512 -1.036525
v 0.124036 1.241804 -0.929156
v 0.346585 1.241804 -1.057644
v 1.203789 3.985925 -1.552552
v 1.168473 3.985925 -1.532162
v 0.654589 3.071218 -1.235470
v 0.758266 3.071218 -1.295328
v -0.025509 -0.587607 -0.842816
v 0.246832 -0.587607 -1.000054
v 0.230150 0.327099 -0.990421
v -0.008827 0.327099 -0.852448
v 0.096843 2.162349 -0.048681
v 0.043268 2.159320 -0.234270
v 0.078194 1.242847 -0.420145
v 0.149436 1.246873 -0.173345
v 0.140476 4.001710 0.716185
v 0.129169 4.001070 0.677022
v 0.059120 3.078663 0.127502
v 0.092311 3.080540 0.242476
v 0.219235 -0.586076 -0.545262
v 0.306421 -0.581149 -0.243241
v 0.206621 0.331658 -0.282104
v 0.130117 0.327334 -0.547123
v 0.840542 2.162348 -0.649916
v 0.660328 2.159320 -0.580370
v 0.472120 1.242847 -0.598962
v 0.711770 1.246873 -0.691446
v 1.598694 4.001710 -0.760046
v 1.560665 4.001070 -0.745372
v 1.019341 3.078663 -0.627693
v 1.130986 3.080540 -0.670778
v 0.335183 -0.586078 -0.728565
v 0.628457 -0.581149 -0.841740
v 0.598440 0.331658 -0.738934
v 0.341098 0.327333 -0.639623
v 0.478891 2.156511 -0.604154
v 0.615536 2.156511 -0.467512
v 0.767379 1.241804 -0.315668
v 0.585667 1.241804 -0.497378
v -0.114239 3.985925 -1.197284
v -0.085403 3.985925 -1.168447
v 0.334183 3.071218 -0.748863
v 0.249530 3.071218 -0.833514
v 0.889481 -0.587607 -0.193566
v 0.667114 -0.587607 -0.415932
v 0.680736 0.327099 -0.402310
v 0.875859 0.327099 -0.207187
v 1.279637 2.156512 -0.853745
v 1.197972 2.156511 -0.678607
v 1.107218 1.241804 -0.483988
v 1.215822 1.241804 -0.716888
v 1.634137 3.985925 -1.613967
v 1.616901 3.985925 -1.577009
v 1.366127 3.071218 -1.039221
v 1.416721 3.071218 -1.147720
v 1.034240 -0.587607 -0.327486
v 1.167144 -0.587607 -0.612500
v 1.159002 0.327099 -0.595041
v 1.042382 0.327099 -0.344945
v 0.529110 2.162348 0.189691
v 0.607364 2.159320 0.013087
v 0.753594 1.242846 -0.106852
v 0.649531 1.246873 0.128002
v 0.070890 4.001710 0.803663
v 0.087403 4.001070 0.766394
v 0.386966 3.078663 0.300409
v 0.338486 3.080540 0.409820
v 0.942064 -0.586078 -0.112037
v 0.814715 -0.581149 0.175365
v 0.763246 0.331658 0.081444
v 0.874991 0.327333 -0.170746
v 1.485285 2.162348 0.207159
v 1.302531 2.159320 0.144596
v 1.170303 1.242846 0.009376
v 1.413334 1.246873 0.092575
v 2.136856 4.001710 0.610124
v 2.098291 4.001070 0.596922
v 1.607970 3.078663 0.339114
v 1.721188 3.080540 0.377872
v 1.148711 -0.586078 -0.177925
v 1.446119 -0.581149 -0.076110
v 1.357044 0.331658 -0.016651
v 1.096072 0.327333 -0.105991
v 0.217925 2.162348 0.200444
v 0.118142 2.159320 0.035046
v 0.103768 1.242846 -0.153533
v 0.236461 1.246873 0.066418
v 0.458035 4.001710 0.927957
v 0.436978 4.001070 0.893053
v 0.227088 3.078663 0.380386
v 0.288904 3.080540 0.482855
v 0.207623 -0.586078 -0.310892
v 0.370004 -0.581149 -0.041728
v 0.263550 0.331658 -0.053436
v 0.121061 0.327333 -0.289625
v -0.401865 2.156511 0.744000
v -0.208623 2.156511 0.744000
v 0.006117 1.241804 0.744000
v -0.250862 1.241804 0.744000
v -1.240677 3.985925 0.744000
v -1.199899 3.985925 0.744000
v -0.606515 3.071218 0.744000
v -0.726231 3.071218 0.744000
v 0.178797 -0.587608 0.744000
v -0.135681 -0.587608 0.744000
v -0.116416 0.327099 0.744000
v 0.159533 0.327099 0.744000
v 0.883451 2.162349 0.606058
v 0.709985 2.159320 0.691044
v 0.520872 1.242846 0.688926
v 0.751550 1.246873 0.575910
v 1.629121 4.001710 0.430271
v 1.592515 4.001070 0.448204
v 1.063507 3.078663 0.612613
v 1.170972 3.080540 0.559963
v 0.373163 -0.586076 0.571754
v 0.655455 -0.581149 0.433447
v 0.634513 0.331658 0.538479
v 0.386804 0.327334 0.659839
v 0.411647 2.156511 1.246459
v 0.394804 2.156511 1.053952
v 0.376090 1.241804 0.840030
v 0.398485 1.241804 1.096030
v 0.484755 3.985924 2.082079
v 0.481200 3.985924 2.041454
v 0.429484 3.071218 1.450330
v 0.439917 3.071218 1.569589
v 0.361039 -0.587608 0.668007
v 0.388448 -0.587608 0.981285
v 0.386769 0.327099 0.962094
v 0.362719 0.327099 0.687198
v 0.162209 2.162348 -0.021941
v 0.261992 2.159320 0.143457
v 0.276366 1.242846 0.332036
v 0.143673 1.246873 0.112085
v -0.077899 4.001710 -0.749454
v -0.056843 4.001070 -0.714550
v 0.153047 3.078663 -0.201883
v 0.091231 3.080540 -0.304352
v 0.172511 -0.586078 0.489396
v 0.010128 -0.581149 0.220232
v 0.116585 0.331658 0.231938
v 0.259073 0.327333 0.468127
v -0.225278 2.162349 0.417811
v -0.408032 2.159320 0.355246
v -0.540259 1.242846 0.220025
v -0.297229 1.246873 0.303225
v 0.426290 4.001710 0.820778
v 0.387726 4.001070 0.807574
v -0.102593 3.078663 0.549763
v 0.010624 3.080540 0.588524
v -0.561851 -0.586076 0.032725
v -0.264443 -0.581149 0.134539
v -0.353520 0.331658 0.193999
v -0.614490 0.327334 0.104659
v -0.291213 2.162349 -0.536247
v -0.337610 2.159320 -0.348734
v -0.460793 1.242846 -0.205225
v -0.399091 1.246873 -0.454582
v 0.053433 4.001710 -1.220458
v 0.043643 4.001070 -1.180888
v -0.170451 3.078663 -0.669963
v -0.141708 3.080540 -0.786129
v -0.645498 -0.586078 -0.167394
v -0.569991 -0.581149 -0.472542
v -0.502994 0.331658 -0.388988
v -0.569250 0.327333 -0.121222
v -1.161365 2.156511 0.249569
v -0.968859 2.156511 0.232728
v -0.754936 1.241804 0.214011
v -1.010935 1.241804 0.236409
v -1.996986 3.985925 0.322676
v -1.956361 3.985925 0.319123
v -1.365237 3.071218 0.267406
v -1.484497 3.071218 0.277840
v -0.582915 -0.587607 0.198961
v -0.896194 -0.587608 0.226369
v -0.877004 0.327099 0.224690
v -0.602104 0.327099 0.200640
v -1.231673 2.156511 -0.393506
v -1.095032 2.156511 -0.256864
v -0.943187 1.241804 -0.105020
v -1.124898 1.241804 -0.286730
v -1.824804 3.985925 -0.986636
v -1.795969 3.985925 -0.957800
v -1.376384 3.071218 -0.538216
v -1.461035 3.071218 -0.622868
v -0.821084 -0.587607 0.017082
v -1.043454 -0.587607 -0.205285
v -1.029832 0.327099 -0.191663
v -0.834706 0.327099 0.003460
v 0.780673 2.162348 -0.572788
v 0.624602 2.159320 -0.458970
v 0.437994 1.242847 -0.428216
v 0.645542 1.246873 -0.579575
v 1.484488 4.001710 -0.875394
v 1.451553 4.001070 -0.851374
v 0.959132 3.078663 -0.597601
v 1.055822 3.080540 -0.668113
v 0.272181 -0.586078 -0.517960
v 0.526168 -0.581149 -0.703184
v 0.523783 0.331658 -0.596112
v 0.300913 0.327333 -0.433581
v -0.031515 2.156512 -1.067962
v -0.014672 2.156512 -0.875455
v 0.004043 1.241804 -0.661534
v -0.018353 1.241804 -0.917534
v -0.104621 3.985925 -1.903582
v -0.101068 3.985925 -1.862959
v -0.049352 3.071218 -1.271833
v -0.059785 3.071218 -1.391092
v 0.019094 -0.587607 -0.489511
v -0.008316 -0.587607 -0.802790
v -0.006635 0.327099 -0.783598
v 0.017414 0.327099 -0.508702
v -0.461159 2.156511 -0.213752
v -0.270853 2.156511 -0.247308
v -0.059375 1.241804 -0.284597
v -0.312449 1.241804 -0.239973
v -1.287228 3.985925 -0.068093
v -1.247068 3.985925 -0.075175
v -0.662700 3.071218 -0.178215
v -0.780596 3.071218 -0.157427
v 0.110680 -0.587607 -0.314584
v -0.199017 -0.587607 -0.259974
v -0.180047 0.327099 -0.263320
v 0.091710 0.327099 -0.311238
vt 0.600000 0.000000
vt 0.600000 1.000000
vt 0.400000 1.000000
vt 0.400000 0.000000
vt 1.000000 0.000000
vt 1.000000 1.000000
vt 0.800000 1.000000
vt 0.800000 0.000000
vt 0.000000 1.000000
vt 0.000000 0.000000
vt 0.200000 0.000000
vt 0.200000 1.000000
vt 0.600000 0.000000
vt 0.600000 1.000000
vt 0.400000 1.000000
vt 0.400000 0.000000
vt 1.000000 0.000000
vt 1.000000 1.000000
vt 0.800000 1.000000
vt 0.800000 0.000000
vt 0.000000 1.000000
vt 0.000000 0.000000
vt 0.200000 0.000000
vt 0.200000 1.000000
vt 0.600000 0.000000
vt 0.600000 1.000000
vt 0.400000 1.000000
vt 0.400000 0.000000
vt 1.000000 0.000000
vt 1.000000 1.000000
vt 0.800000 1.000000
vt 0.800000 0.000000
vt 0.000000 1.000000
vt 0.000000 0.000000
vt 0.200000 0.000000
vt 0.200000 1.000000
vt 0.600000 0.000000
vt 0.600000 1.000000
vt 0.400000 1.000000
vt 0.400000 0.000000
vt 1.000000 0.000000
vt 1.000000 1.000000
vt 0.800000 1.000000
vt 0.800000 0.000000
vt 0.000000 1.000000
vt 0.000000 0.000000
vt 0.200000 0.000000
vt 0.200000 1.000000
vt 0.600000 0.000000
vt 0.600000 1.000000
vt 0.400000 1.000000
vt 0.400000 0.000000
vt 1.000000 0.000000
vt 1.000000 1.000000
vt 0.800000 1.000000
vt 0.800000 0.000000
vt 0.000000 1.000000
vt 0.000000 0.000000
vt 0.200000 0.000000
vt 0.200000 1.000000
vt 0.600000 0.000000
vt 0.600000 1.000000
vt 0.400000 1.000000
vt 0.400000 0.000000
vt 1.000000 0.000000
vt 1.000000 1.000000
vt 0.800000 1.000000
vt 0.800000 0.000000
vt 0.000000 1.000000
vt 0.000000 0.000000
vt 0.200000 0.000000
vt 0.200000 1.000000
vt 0.600000 0.000000
vt 0.600000 1.000000
vt 0.400000 1.000000
vt 0.400000 0.000000
vt 1.000000 0.000000
vt 1.000000 1.000000
vt 0.800000 1.000000
vt 0.800000 0.000000
vt 0.000000 1.000000
vt 0.000000 0.000000
vt 0.200000 0.000000
vt 0.200000 1.000000
vt 0.600000 0.000000
vt 0.600000 1.000000
vt 0.400000 1.000000
vt 0.400000 0.000000
vt 1.000000 0.000000
vt 1.000000 1.000000
vt 0.800000 1.000000
vt 0.800000 0.000000
vt 0.000000 1.000000
vt 0.000000 0.000000
vt 0.200000 0.000000
vt 0.200000 1.000000
vt 0.600000 0.000000
vt 0.600000 1.000000
vt 0.400000 1.000000
vt 0.400000 0.000000
vt 1.000000 0.000000
vt 1.000000 1.000000
vt 0.800000 1.000000
vt 0.800000 0.000000
vt 0.000000 1.000000
vt 0.000000 0.000000
vt 0.200000 0.000000
vt 0.200000 1.000000
vt 0.600000 0.000000
vt 0.600000 1.000000
vt 0.400000 1.000000
vt 0.400000 0.000000
vt 1.000000 0.000000
vt 1.000000 1.000000
vt 0.800000 1.000000
vt 0.800000 0.000000
vt 0.000000 1.000000
vt 0.000000 0.000000
vt 0.200000 0.000000
vt 0.200000 1.000000
vt 0.600000 0.000000
vt 0.600000 1.000000
vt 0.400000 1.000000
vt 0.400000 0.000000
vt 1.000000 0.000000
vt 1.000000 1.000000
vt 0.800000 1.000000
vt 0.800000 0.000000
vt 0.000000 1.000000
vt 0.000000 0.000000
vt 0.200000 0.000000
vt 0.200000 1.000000
vt 0.600000 0.000000
vt 0.600000 1.000000
vt 0.400000 1.000000
vt 0.400000 0.000000
vt 1.000000 0.000000
vt 1.000000 1.000000
vt 0.800000 1.000000
vt 0.800000 0.000000
vt 0.000000 1.000000
vt 0.000000 0.000000
vt 0.200000 0.000000
vt 0.200000 1.000000
vt 0.600000 0.000000
vt 0.600000 1.000000
vt 0.400000 1.000000
vt 0.400000 0.000000
vt 1.000000 0.000000
vt 1.000000 1.000000
vt 0.800000 1.000000
vt 0.800000 0.000000
vt 0.000000 1.000000
vt 0.000000 0.000000
vt 0.200000 0.000000
vt 0.200000 1.000000
vt 0.600000 0.000000
vt 0.600000 1.000000
vt 0.400000 1.000000
vt 0.400000 0.000000
vt 1.000000 0.000000
vt 1.000000 1.000000
vt 0.800000 1.000000
vt 0.800000 0.000000
vt 0.000000 1.000000
vt 0.000000 0.000000
vt 0.200000 0.000000
vt 0.200000 1.000000
vt 0.600000 0.000000
vt 0.600000 1.000000
vt 0.400000 1.000000
vt 0.400000 0.000000
vt 1.000000 0.000000
vt 1.000000 1.000000
vt 0.800000 1.000000
vt 0.800000 0.000000
vt 0.000000 1.000000
vt 0.000000 0.000000
vt 0.200000 0.000000
vt 0.200000 1.000000
vt 0.600000 0.000000
vt 0.600000 1.000000
vt 0.400000 1.000000
vt 0.400000 0.000000
vt 1.000000 0.000000
vt 1.000000 1.000000
vt 0.800000 1.000000
vt 0.800000 0.000000
vt 0.000000 1.000000
vt 0.000000 0.000000
vt 0.200000 0.000000
vt 0.200000 1.000000
vt 0.600000 0.000000
vt 0.600000 1.000000
vt 0.400000 1.000000
vt 0.400000 0.000000
vt 1.000000 0.000000
vt 1.000000 1.000000
vt 0.800000 1.000000
vt 0.800000 0.000000
vt 0.000000 1.000000
vt 0.000000 0.000000
vt 0.200000 0.000000
vt 0.200000 1.000000
vt 0.600000 0.000000
vt 0.600000 1.000000
vt 0.400000 1.000000
vt 0.400000 0.000000
vt 1.000000 0.000000
vt 1.000000 1.000000
vt 0.800000 1.000000
vt 0.800000 0.000000
vt 0.000000 1.000000
vt 0.000000 0.000000
vt 0.200000 0.000000
vt 0.200000 1.000000
vt 0.600000 0.000000
vt 0.600000 1.000000
vt 0.400000 1.000000
vt 0.400000 0.000000
vt 1.000000 0.000000
vt 1.000000 1.000000
vt 0.800000 1.000000
vt 0.800000 0.000000
vt 0.000000 1.000000
vt 0.000000 0.000000
vt 0.200000 0.000000
vt 0.200000 1.000000
vt 0.600000 0.000000
vt 0.600000 1.000000
vt 0.400000 1.000000
vt 0.400000 0.000000
vt 1.000000 0.000000
vt 1.000000 1.000000
vt 0.800000 1.000000
vt 0.800000 0.000000
vt 0.000000 1.000000
vt 0.000000 0.000000
vt 0.200000 0.000000
vt 0.200000 1.000000
vt 0.600000 0.000000
vt 0.600000 1.000000
vt 0.400000 1.000000
vt 0.400000 0.000000
vt 1.000000 0.000000
vt 1.000000 1.000000
vt 0.800000 1.000000
vt 0.800000 0.000000
vt 0.000000 1.000000
vt 0.000000 0.000000
vt 0.200000 0.000000
vt 0.200000 1.000000
vt 0.600000 0.000000
vt 0.600000 1.000000
vt 0.400000 1.000000
vt 0.400000 0.000000
vt 1.000000 0.000000
vt 1.000000 1.000000
vt 0.800000 1.000000
vt 0.800000 0.000000
vt 0.000000 1.000000
vt 0.000000 0.000000
vt 0.200000 0.000000
vt 0.200000 1.000000
vt 0.600000 0.000000
vt 0.600000 1.000000
vt 0.400000 1.000000
vt 0.400000 0.000000
vt 1.000000 0.000000
vt 1.000000 1.000000
vt 0.800000 1.000000
vt 0.800000 0.000000
vt 0.000000 1.000000
vt 0.000000 0.000000
vt 0.200000 0.000000
vt 0.200000 1.000000
vt 0.600000 0.000000
vt 0.600000 1.000000
vt 0.400000 1.000000
vt 0.400000 0.000000
vt 1.000000 0.000000
vt 1.000000 1.000000
vt 0.800000 1.000000
vt 0.800000 0.000000
vt 0.000000 1.000000
vt 0.000000 0.000000
vt 0.200000 0.000000
vt 0.200000 1.000000
vt 0.600000 0.000000
vt 0.600000 1.000000
vt 0.400000 1.000000
vt 0.400000 0.000000
vt 1.000000 0.000000
vt 1.000000 1.000000
vt 0.800000 1.000000
vt 0.800000 0.000000
vt 0.000000 1.000000
vt 0.000000 0.000000
vt 0.200000 0.000000
vt 0.200000 1.000000
vt 0.600000 0.000000
vt 0.600000 1.000000
vt 0.400000 1.000000
vt 0.400000 0.000000
vt 1.000000 0.000000
vt 1.000000 1.000000
vt 0.800000 1.000000
vt 0.800000 0.000000
vt 0.000000 1.000000
vt 0.000000 0.000000
vt 0.200000 0.000000
vt 0.200000 1.000000
vt 0.600000 0.000000
vt 0.600000 1.000000
vt 0.400000 1.000000
vt 0.400000 0.000000
vt 1.000000 0.000000
vt 1.000000 1.000000
vt 0.800000 1.000000
vt 0.800000 0.000000
vt 0.000000 1.000000
vt 0.000000 0.000000
vt 0.200000 0.000000
vt 0.200000 1.000000
vt 0.600000 0.000000
vt 0.600000 1.000000
vt 0.400000 1.000000
vt 0.400000 0.000000
vt 1.000000 0.000000
vt 1.000000 1.000000
vt 0.800000 1.000000
vt 0.800000 0.000000
vt 0.000000 1.000000
vt 0.000000 0.000000
vt 0.200000 0.000000
vt 0.200000 1.000000
vn -1.0000 -0.0000 0.0000
vn 0.8967 -0.0389 -0.4409
vn 0.0872 -0.0000 -0.9962
vn 0.0871 -0.0000 -0.9962
vn 0.3611 -0.0389 0.9317
vn -0.6428 0.0000 -0.7660
vn 0.8192 -0.0000 -0.5736
vn -0.4818 -0.0291 0.8758
vn 0.9145 -0.0291 0.4036
vn 0.5000 -0.0000 0.8660
vn -0.9600 -0.0291 0.2786
vn 0.3612 -0.0291 0.9320
vn 0.7071 -0.0000 -0.7071
vn 0.9063 -0.0000 0.4226
vn -0.9145 -0.0291 -0.4036
vn -0.3224 -0.0291 0.9462
vn -0.8551 -0.0291 0.5176
vn 0.0000 0.0000 -1.0000
vn 0.4411 -0.0291 0.8970
vn -0.9962 0.0000 0.0872
vn 0.8551 -0.0291 -0.5176
vn 0.9707 -0.0291 0.2387
vn -0.0872 0.0000 -0.9962
vn -0.0871 0.0000 -0.9962
vn 0.5902 -0.0291 0.8068
vn 0.5902 -0.0291 0.8067
vn 0.9962 0.0000 -0.0872
vn 0.9962 0.0000 -0.0871
vn -0.1736 -0.0000 -0.9848
vn -0.1737 -0.0000 -0.9848
usemtl _crayfishdiffuse
s 1
f 1/1/1 2/2/1 3/3/1 4/4/1
f 5/5/1 6/6/1 7/7/1 8/8/1
f 8/8/1 7/7/1 2/2/1 1/1/1
f 9/9/1 10/10/1 11/11/1 12/12/1
f 12/12/1 11/11/1 4/4/1 3/3/1
f 13/13/2 14/14/2 15/15/2 16/16/2
f 17/17/2 18/18/2 19/19/2 20/20/2
f 20/20/2 19/19/2 14/14/2 13/13/2
f 21/21/2 22/22/2 23/23/2 24/24/2
f 24/24/2 23/23/2 16/16/2 15/15/2
f 25/25/3 26/26/3 27/27/3 28/28/3
f 29/29/4 30/30/4 31/31/3 32/32/4
f 32/32/4 31/31/3 26/26/3 25/25/3
f 33/33/3 34/34/3 35/35/3 36/36/3
f 36/36/3 35/35/3 28/28/3 27/27/3
f 37/37/5 38/38/5 39/39/5 40/40/5
f 41/41/5 42/42/5 43/43/5 44/44/5
f 44/44/5 43/43/5 38/38/5 37/37/5
f 45/45/5 46/46/5 47/47/5 48/48/5
f 48/48/5 47/47/5 40/40/5 39/39/5
f 49/49/6 50/50/6 51/51/6 52/52/6
f 53/53/6 54/54/6 55/55/6 56/56/6
f 56/56/6 55/55/6 50/50/6 49/49/6
f 57/57/6 58/58/6 59/59/6 60/60/6
f 60/60/6 59/59/6 52/52/6 51/51/6
f 61/61/7 62/62/7 63/63/7 64/64/7
f 65/65/7 66/66/7 67/67/7 68/68/7
f 68/68/7 67/67/7 62/62/7 61/61/7
f 69/69/7 70/70/7 71/71/7 72/72/7
f 72/72/7 71/71/7 64/64/7 63/63/7
f 73/73/8 74/74/8 75/75/8 76/76/8
f 77/77/8 78/78/8 79/79/8 80/80/8
f 80/80/8 79/79/8 74/74/8 73/73/8
f 81/81/8 82/82/8 83/83/8 84/84/8
f 84/84/8 83/83/8 76/76/8 75/75/8
f 85/85/9 86/86/9 87/87/9 88/88/9
f 89/89/9 90/90/9 91/91/9 92/92/9
f 92/92/9 91/91/9 86/86/9 85/85/9
f 93/93/9 94/94/9 95/95/9 96/96/9
f 96/96/9 95/95/9 88/88/9 87/87/9
f 97/97/3 98/98/3 99/99/3 100/100/3
f 101/101/4 102/102/4 103/103/3 104/104/4
f 104/104/4 103/103/3 98/98/3 97/97/3
f 105/105/3 106/106/3 107/107/3 108/108/3
f 108/108/3 107/107/3 100/100/3 99/99/3
f 109/109/10 110/110/10 111/111/10 112/112/10
f 113/113/10 114/114/10 115/115/10 116/116/10
f 116/116/10 115/115/10 110/110/10 109/109/10
f 117/117/10 118/118/10 119/119/10 120/120/10
f 120/120/10 119/119/10 112/112/10 111/111/10
f 121/121/11 122/122/11 123/123/11 124/124/11
f 125/125/11 126/126/11 127/127/11 128/128/11
f 128/128/11 127/127/11 122/122/11 121/121/11
f 129/129/11 130/130/11 131/131/11 132/132/11
f 132/132/11 131/131/11 124/124/11 123/123/11
f 133/133/12 134/134/12 135/135/12 136/136/12
f 137/137/12 138/138/12 139/139/12 140/140/12
f 140/140/12 139/139/12 134/134/12 133/133/12
f 141/141/12 142/142/12 143/143/12 144/144/12
f 144/144/12 143/143/12 136/136/12 135/135/12
f 145/145/13 146/146/13 147/147/13 148/148/13
f 149/149/13 150/150/13 151/151/13 152/152/13
f 152/152/13 151/151/13 146/146/13 145/145/13
f 153/153/13 154/154/13 155/155/13 156/156/13
f 156/156/13 155/155/13 148/148/13 147/147/13
f 157/157/14 158/158/14 159/159/14 160/160/14
f 161/161/14 162/162/14 163/163/14 164/164/14
f 164/164/14 163/163/14 158/158/14 157/157/14
f 165/165/14 166/166/14 167/167/14 168/168/14
f 168/168/14 167/167/14 160/160/14 159/159/14
f 169/169/15 170/170/15 171/171/15 172/172/15
f 173/173/15 174/174/15 175/175/15 176/176/15
f 176/176/15 175/175/15 170/170/15 169/169/15
f 177/177/15 178/178/15 179/179/15 180/180/15
f 180/180/15 179/179/15 172/172/15 171/171/15
f 181/181/16 182/182/16 183/183/16 184/184/16
f 185/185/16 186/186/16 187/187/16 188/188/16
f 188/188/16 187/187/16 182/182/16 181/181/16
f 189/189/16 190/190/16 191/191/16 192/192/16
f 192/192/16 191/191/16 184/184/16 183/183/16
f 193/193/17 194/194/17 195/195/17 196/196/17
f 197/197/17 198/198/17 199/199/17 200/200/17
f 200/200/17 199/199/17 194/194/17 193/193/17
f 201/201/17 202/202/17 203/203/17 204/204/17
f 204/204/17 203/203/17 196/196/17 195/195/17
f 205/205/18 206/206/18 207/207/18 208/208/18
f 209/209/18 210/210/18 211/211/18 212/212/18
f 212/212/18 211/211/18 206/206/18 205/205/18
f 213/213/18 214/214/18 215/215/18 216/216/18
f 216/216/18 215/215/18 208/208/18 207/207/18
f 217/217/19 218/218/19 219/219/19 220/220/19
f 221/221/19 222/222/19 223/223/19 224/224/19
f 224/224/19 223/223/19 218/218/19 217/217/19
f 225/225/19 226/226/19 227/227/19 228/228/19
f 228/228/19 227/227/19 220/220/19 219/219/19
f 229/229/20 230/230/20 231/231/20 232/232/20
f 233/233/20 234/234/20 235/235/20 236/236/20
f 236/236/20 235/235/20 230/230/20 229/229/20
f 237/237/20 238/238/20 239/239/20 240/240/20
f 240/240/20 239/239/20 232/232/20 231/231/20
f 241/241/21 242/242/21 243/243/21 244/244/21
f 245/245/21 246/246/21 247/247/21 248/248/21
f 248/248/21 247/247/21 242/242/21 241/241/21
f 249/249/21 250/250/21 251/251/21 252/252/21
f 252/252/21 251/251/21 244/244/21 243/243/21
f 253/253/16 254/254/16 255/255/16 256/256/16
f 257/257/16 258/258/16 259/259/16 260/260/16
f 260/260/16 259/259/16 254/254/16 253/253/16
f 261/261/16 262/262/16 263/263/16 264/264/16
f 264/264/16 263/263/16 256/256/16 255/255/16
f 265/265/22 266/266/22 267/267/22 268/268/22
f 269/269/22 270/270/22 271/271/22 272/272/22
f 272/272/22 271/271/22 266/266/22 265/265/22
f 273/273/22 274/274/22 275/275/22 276/276/22
f 276/276/22 275/275/22 268/268/22 267/267/22
f 277/277/23 278/278/23 279/279/23 280/280/23
f 281/281/24 282/282/24 283/283/23 284/284/24
f 284/284/24 283/283/23 278/278/23 277/277/23
f 285/285/23 286/286/23 287/287/23 288/288/23
f 288/288/23 287/287/23 280/280/23 279/279/23
f 289/289/13 290/290/13 291/291/13 292/292/13
f 293/293/13 294/294/13 295/295/13 296/296/13
f 296/296/13 295/295/13 290/290/13 289/289/13
f 297/297/13 298/298/13 299/299/13 300/300/13
f 300/300/13 299/299/13 292/292/13 291/291/13
f 301/301/25 302/302/25 303/303/25 304/304/25
f 305/305/26 306/306/26 307/307/25 308/308/26
f 308/308/26 307/307/25 302/302/25 301/301/25
f 309/309/25 310/310/25 311/311/25 312/312/25
f 312/312/25 311/311/25 304/304/25 303/303/25
f 313/313/27 314/314/27 315/315/27 316/316/27
f 317/317/28 318/318/28 319/319/27 320/320/28
f 320/320/28 319/319/27 314/314/27 313/313/27
f 321/321/27 322/322/27 323/323/27 324/324/27
f 324/324/27 323/323/27 316/316/27 315/315/27
f 325/325/29 326/326/29 327/327/29 328/328/29
f 329/329/30 330/330/30 331/331/29 332/332/30
f 332/332/30 331/331/29 326/326/29 325/325/29
f 333/333/30 334/334/30 335/335/30 336/336/30
f 336/336/30 335/335/30 328/328/29 327/327/29
