# Blender v2.93.6 OBJ File: 'roses.blend'
# www.blender.org
mtllib slug.mtl
o Cube_Cube.009
v -1.361687 -0.316372 -0.043518
v -1.211341 -0.213494 -0.030350
v -1.154734 -0.213494 -0.091049
v -1.361687 -0.316372 -0.130549
v -0.370167 -0.225219 -0.471722
v -0.254320 0.039308 -0.347648
v 0.231445 0.039308 -0.347648
v 0.298411 -0.225219 -0.471722
v 0.361175 -0.225219 0.157240
v 0.294208 0.039308 0.115881
v 0.231445 0.039308 0.347647
v 0.298411 -0.225219 0.471721
v -0.718436 -0.316372 0.471721
v -0.676746 -0.142999 0.416086
v -1.154734 -0.213494 0.091049
v -1.361687 -0.316372 0.130549
v -0.268711 -0.489745 0.213043
v 0.678762 -0.489745 0.213043
v 0.452176 -0.489745 0.639127
v -0.268711 -0.489745 0.639127
v -0.676746 -0.142999 0.138694
v -1.211341 -0.213494 0.030350
v -0.254320 0.039308 0.115881
v -0.254320 0.039308 0.347647
v -1.802614 -0.489745 0.068277
v -0.797773 -0.489745 0.213043
v -0.797773 -0.489745 0.639127
v -1.802614 -0.489745 0.204835
v -0.370167 -0.225219 0.471721
v -0.676746 -0.142998 -0.416086
v -0.718436 -0.316372 -0.471722
v 0.226854 0.523122 -0.236556
v -0.110046 0.536110 -0.217244
v -0.035026 0.670904 -0.192027
v 0.222439 0.603584 -0.227679
v 0.200985 0.601281 -0.121588
v 0.176354 0.730043 -0.187653
v 0.168322 0.742096 -0.121446
v -0.119143 0.534349 0.074204
v -0.110046 0.536110 0.217243
v -0.035026 0.670904 0.192027
v -0.045575 0.673188 0.066314
v 0.226854 0.523122 0.236555
v 0.222439 0.603584 0.227679
v 0.271124 0.500067 -0.085693
v 0.271124 0.500067 0.085692
v 0.200985 0.601281 0.121588
v -0.119143 0.534349 -0.074204
v -0.045575 0.673188 -0.066314
v 0.036488 0.757664 -0.102055
v 0.042723 0.753439 -0.168316
v -0.797773 -0.489745 -0.639127
v -0.268711 -0.489745 -0.639127
v -0.268711 -0.489745 -0.213044
v -0.797773 -0.489745 -0.213044
v -1.802614 -0.489745 -0.204835
v -1.802614 -0.489745 -0.068278
v -0.676746 -0.142999 -0.138694
v -0.254320 0.039308 -0.115882
v 0.452176 -0.489745 -0.639127
v 0.678762 -0.489745 -0.213044
v 0.294208 0.039308 -0.115882
v 0.361175 -0.225219 -0.157241
v -1.361687 -0.316372 0.043517
v 0.185863 0.873322 0.155271
v 0.254828 0.828201 0.163558
v 0.387954 0.863542 0.142731
v 0.365646 0.897820 0.140118
v 0.254730 0.834660 -0.119669
v 0.254828 0.828201 -0.163558
v 0.387954 0.863542 -0.142730
v 0.388862 0.865331 -0.122549
v 0.176354 0.730043 0.187653
v 0.042723 0.753439 0.168316
v 0.036488 0.757664 0.102055
v 0.168322 0.742096 0.121446
v 0.395223 0.848556 -0.163842
v 0.398349 0.854048 -0.102465
v 0.366251 0.899453 -0.120145
v 0.358607 0.913087 -0.098797
v 0.185863 0.873322 -0.155271
v 0.365646 0.897820 -0.140118
v 0.254730 0.834660 0.119669
v 0.184676 0.877699 0.112195
v 0.366251 0.899453 0.120145
v 0.388862 0.865331 0.122549
v 0.184676 0.877699 -0.112195
v 0.358607 0.913087 0.098797
v 0.357059 0.908386 0.159090
v 0.413363 0.930672 0.154947
v 0.415043 0.934170 0.095772
v 0.357059 0.908386 -0.159090
v 0.415043 0.934170 -0.095772
v 0.413363 0.930672 -0.154947
v 0.395223 0.848556 0.163842
v 0.398349 0.854048 0.102465
v 0.453241 0.874598 0.098054
v 0.450481 0.870817 0.158088
v 0.450481 0.870817 -0.158088
v 0.453241 0.874598 -0.098054
v -0.175251 0.430885 0.080348
v -0.175251 0.430885 -0.080349
v -0.168140 0.433784 -0.237094
v 0.312401 0.421017 -0.087281
v 0.312401 0.421017 0.087280
v 0.240437 0.439960 0.252222
v 0.240437 0.439960 -0.252222
v -0.168140 0.433784 0.237094
v 0.380619 0.465293 0.144504
v 0.362306 0.469008 0.185750
v 0.380619 0.465293 -0.144505
v 0.370256 0.493305 -0.145497
v 0.370252 0.493305 0.145497
v 0.371554 0.500058 0.134957
v 0.387286 0.457000 0.133703
v 0.359044 0.496834 0.182111
v 0.354041 0.505635 0.191636
v 0.359044 0.496834 -0.182111
v 0.362306 0.469008 -0.185750
v 0.359300 0.462571 0.197062
v 0.401894 0.461323 0.194478
v 0.397319 0.504652 0.188321
v 0.371554 0.500058 -0.134957
v 0.387286 0.457000 -0.133703
v 0.429212 0.456732 -0.131498
v 0.414346 0.500221 -0.131986
v 0.359300 0.462571 -0.197062
v 0.354041 0.505635 -0.191636
v 0.429212 0.456732 0.131497
v 0.414346 0.500221 0.131986
v 0.401894 0.461323 -0.194478
v 0.397322 0.504652 -0.188321
vt 0.597953 0.352243
vt 0.604785 0.365446
vt 0.601960 0.371851
vt 0.591253 0.355265
vt 0.473475 0.390999
vt 0.496860 0.402166
vt 0.495251 0.444107
vt 0.471275 0.448705
vt 0.379279 0.550652
vt 0.382597 0.574070
vt 0.363449 0.576007
vt 0.353202 0.552557
vt 0.548162 0.514984
vt 0.533120 0.519253
vt 0.532364 0.478954
vt 0.540772 0.460660
vt 0.374714 0.438129
vt 0.374714 0.519516
vt 0.338882 0.500073
vt 0.338882 0.438129
vt 0.635822 0.401870
vt 0.609449 0.363311
vt 0.615952 0.365545
vt 0.657203 0.392214
vt 0.649485 0.438721
vt 0.667319 0.430674
vt 0.386866 0.306327
vt 0.374714 0.392674
vt 0.338882 0.392674
vt 0.375404 0.306327
vt 0.541758 0.545299
vt 0.518406 0.556498
vt 0.474461 0.306327
vt 0.482901 0.324621
vt 0.482146 0.364954
vt 0.467104 0.360651
vt 0.543991 0.603038
vt 0.520015 0.598440
vt 0.536929 0.445454
vt 0.539426 0.416485
vt 0.550691 0.423415
vt 0.543728 0.445322
vt 0.401909 0.622383
vt 0.410711 0.621923
vt 0.407361 0.633550
vt 0.401810 0.634765
vt 0.582615 0.503653
vt 0.570562 0.502864
vt 0.572696 0.493504
vt 0.583272 0.494358
vt 0.475840 0.570818
vt 0.478336 0.599786
vt 0.471538 0.599655
vt 0.464575 0.577748
vt 0.398756 0.612037
vt 0.411598 0.615256
vt 0.371890 0.615256
vt 0.384370 0.612037
vt 0.381513 0.622383
vt 0.372514 0.621923
vt 0.607117 0.502864
vt 0.595096 0.503653
vt 0.594406 0.494358
vt 0.604982 0.493504
vt 0.597428 0.485556
vt 0.602978 0.485129
vt 0.599070 0.475440
vt 0.578608 0.475440
vt 0.446346 0.392674
vt 0.446346 0.438129
vt 0.410514 0.438129
vt 0.410514 0.392674
vt 0.409824 0.306327
vt 0.398362 0.306327
vt 0.613784 0.454814
vt 0.593125 0.421116
vt 0.614474 0.411493
vt 0.631618 0.446767
vt 0.446346 0.500073
vt 0.410514 0.519516
vt 0.432355 0.552557
vt 0.421779 0.576007
vt 0.402040 0.574070
vt 0.405653 0.550652
vt 0.611353 0.346200
vt 0.604653 0.349221
vt 0.448021 0.597520
vt 0.452094 0.603301
vt 0.449302 0.614993
vt 0.446346 0.613154
vt 0.613718 0.482042
vt 0.610040 0.482468
vt 0.610631 0.470579
vt 0.612339 0.470284
vt 0.460305 0.596174
vt 0.457645 0.584777
vt 0.597789 0.560374
vt 0.616608 0.549634
vt 0.616608 0.560177
vt 0.607773 0.567205
vt 0.557621 0.430444
vt 0.554961 0.441841
vt 0.574700 0.485129
vt 0.580250 0.485556
vt 0.381414 0.634765
vt 0.375864 0.633550
vt 0.616608 0.549634
vt 0.597789 0.538894
vt 0.607773 0.532063
vt 0.616608 0.539091
vt 0.617791 0.492683
vt 0.616083 0.492486
vt 0.614375 0.491008
vt 0.619532 0.491533
vt 0.617791 0.496099
vt 0.619532 0.497511
vt 0.563172 0.449001
vt 0.567244 0.443187
vt 0.568919 0.458821
vt 0.565963 0.460660
vt 0.607642 0.577978
vt 0.614342 0.576434
vt 0.604423 0.588554
vt 0.601106 0.587766
vt 0.601894 0.470448
vt 0.598282 0.470448
vt 0.598939 0.454814
vt 0.600614 0.454913
vt 0.579396 0.470448
vt 0.575784 0.470481
vt 0.577065 0.454913
vt 0.578740 0.454814
vt 0.613094 0.502503
vt 0.609449 0.502076
vt 0.610828 0.490318
vt 0.612503 0.490581
vt 0.614342 0.522801
vt 0.607642 0.521257
vt 0.601106 0.511470
vt 0.604423 0.510714
vt 0.597822 0.593776
vt 0.597789 0.588554
vt 0.602847 0.589112
vt 0.602847 0.594236
vt 0.602847 0.594236
vt 0.602847 0.589014
vt 0.607872 0.588554
vt 0.607872 0.593677
vt 0.616083 0.485983
vt 0.616050 0.489431
vt 0.614375 0.491008
vt 0.614441 0.484998
vt 0.616116 0.495934
vt 0.614474 0.496985
vt 0.617725 0.489201
vt 0.617758 0.485753
vt 0.619466 0.484308
vt 0.619466 0.490252
vt 0.619367 0.497971
vt 0.619367 0.503948
vt 0.614441 0.503488
vt 0.614375 0.497511
vt 0.614375 0.510254
vt 0.614441 0.504277
vt 0.619433 0.503948
vt 0.619433 0.509926
vt 0.607872 0.594499
vt 0.607938 0.589178
vt 0.612667 0.588554
vt 0.612667 0.593743
vt 0.591483 0.593415
vt 0.591614 0.587371
vt 0.596344 0.586156
vt 0.596344 0.592199
vt 0.612733 0.593842
vt 0.612667 0.588554
vt 0.617462 0.589309
vt 0.617462 0.594499
vt 0.614375 0.477312
vt 0.614441 0.471170
vt 0.619400 0.470284
vt 0.619400 0.476360
vt 0.614441 0.483421
vt 0.614375 0.477312
vt 0.619400 0.478232
vt 0.619400 0.484308
vt 0.586753 0.592199
vt 0.586589 0.586156
vt 0.591483 0.587404
vt 0.591483 0.593415
vt 0.597789 0.530683
vt 0.597789 0.550685
vt 0.568952 0.548846
vt 0.568952 0.534953
vt 0.597789 0.510714
vt 0.568919 0.521487
vt 0.398822 0.604384
vt 0.384173 0.604384
vt 0.370674 0.608129
vt 0.412977 0.608129
vt 0.485463 0.600673
vt 0.484412 0.565432
vt 0.597789 0.570687
vt 0.568919 0.562410
vt 0.530853 0.411099
vt 0.529770 0.446340
vt 0.590629 0.311057
vt 0.580119 0.315819
vt 0.601139 0.306327
vt 0.409266 0.519516
vt 0.373532 0.519516
vt 0.446149 0.526479
vt 0.450485 0.352736
vt 0.448744 0.398421
vt 0.568919 0.614993
vt 0.566522 0.552754
vt 0.569609 0.320549
vt 0.585932 0.416255
vt 0.568919 0.412380
vt 0.564781 0.507068
vt 0.667319 0.367942
vt 0.658583 0.383477
vt 0.338882 0.526479
vt 0.446346 0.460660
vt 0.595588 0.510714
vt 0.582090 0.510714
vt 0.608792 0.510057
vt 0.616280 0.454814
vt 0.616280 0.470284
vt 0.608792 0.468181
vt 0.608824 0.464306
vt 0.576309 0.591970
vt 0.568919 0.591970
vt 0.570102 0.584448
vt 0.572598 0.584120
vt 0.568919 0.510057
vt 0.617265 0.515411
vt 0.619729 0.514820
vt 0.620385 0.515608
vt 0.616608 0.516495
vt 0.619729 0.511667
vt 0.620385 0.510714
vt 0.482475 0.611512
vt 0.480110 0.611314
vt 0.586589 0.570687
vt 0.586589 0.584120
vt 0.577853 0.577091
vt 0.577754 0.573807
vt 0.535156 0.456982
vt 0.532791 0.457179
vt 0.594110 0.570687
vt 0.594110 0.586156
vt 0.586622 0.576697
vt 0.586589 0.572822
vt 0.583699 0.591970
vt 0.576309 0.591970
vt 0.580021 0.584120
vt 0.582484 0.584448
vt 0.577754 0.570687
vt 0.577754 0.584120
vt 0.568919 0.581000
vt 0.568985 0.577715
vt 0.616608 0.553838
vt 0.616674 0.550094
vt 0.620254 0.549634
vt 0.620254 0.553411
vt 0.616608 0.545003
vt 0.616707 0.541062
vt 0.619991 0.539814
vt 0.619991 0.543755
vt 0.616937 0.455931
vt 0.617035 0.459675
vt 0.616444 0.460562
vt 0.616280 0.454814
vt 0.619367 0.459773
vt 0.620057 0.460759
vt 0.619367 0.456489
vt 0.620057 0.455668
vt 0.617397 0.511864
vt 0.616805 0.511010
vt 0.616838 0.521914
vt 0.616608 0.516495
vt 0.620418 0.517250
vt 0.620418 0.522111
vt 0.616280 0.466506
vt 0.616477 0.460792
vt 0.620090 0.460759
vt 0.620090 0.465784
vt 0.597296 0.570687
vt 0.597296 0.576631
vt 0.594143 0.578241
vt 0.594110 0.572329
vt 0.616641 0.533442
vt 0.616608 0.528384
vt 0.619926 0.529599
vt 0.619926 0.534624
vt 0.616707 0.538566
vt 0.616608 0.534624
vt 0.619991 0.535905
vt 0.619991 0.539814
vt 0.597296 0.579850
vt 0.597296 0.585795
vt 0.594110 0.584153
vt 0.594143 0.578241
vt 0.616674 0.548780
vt 0.616608 0.545003
vt 0.620254 0.545430
vt 0.620254 0.549240
vt 0.616608 0.528384
vt 0.616641 0.523293
vt 0.619926 0.522111
vt 0.619926 0.527169
vt 0.614375 0.510353
vt 0.608792 0.510353
vt 0.614375 0.490318
vt 0.608792 0.490318
vn -0.4707 0.8636 -0.1804
vn 0.0000 0.4247 -0.9054
vn 0.9291 0.3020 0.2135
vn -0.4309 0.6152 0.6602
vn 0.0000 -1.0000 -0.0000
vn -0.1483 0.9886 0.0248
vn -0.3962 0.9181 0.0000
vn -0.0596 0.3973 0.9158
vn -0.4309 0.6152 -0.6602
vn 0.0000 0.4247 0.9054
vn -0.0668 0.1774 -0.9819
vn -0.0596 0.3973 -0.9158
vn 0.9544 0.2589 0.1487
vn -0.8736 0.4822 0.0648
vn -0.0668 0.1774 0.9819
vn 0.9265 0.3735 -0.0454
vn 0.9265 0.3735 0.0454
vn 0.8219 0.5696 0.0000
vn -0.8736 0.4822 -0.0648
vn -0.8835 0.4683 0.0000
vn -0.8836 0.4682 0.0000
vn -0.7229 0.6855 -0.0865
vn 0.2800 0.9600 0.0000
vn -0.1483 0.9886 -0.0248
vn -0.1307 0.9914 0.0000
vn 0.9291 0.3020 -0.2135
vn 0.9694 0.2454 0.0000
vn -0.4707 0.8636 0.1804
vn -0.5647 0.8253 0.0000
vn 0.0709 0.2151 0.9740
vn 0.2303 -0.9655 0.1214
vn -0.0642 0.3000 0.9518
vn 0.2160 0.1060 -0.9706
vn -0.0642 0.3000 -0.9518
vn -0.7229 0.6855 0.0865
vn 0.9544 0.2589 -0.1487
vn 0.2160 0.1060 0.9706
vn -0.8381 -0.5381 0.0895
vn -0.8349 -0.5434 0.0878
vn -0.8379 -0.5385 0.0895
vn -0.8263 -0.5592 0.0673
vn -0.8270 -0.5580 0.0684
vn -0.8258 -0.5600 0.0665
vn 0.0709 0.2151 -0.9740
vn 0.0462 -0.0721 -0.9963
vn -0.1245 0.9876 -0.0953
vn -0.1245 0.9876 0.0953
vn 0.2303 -0.9655 -0.1214
vn 0.0462 -0.0721 0.9963
vn -0.3555 0.9331 0.0544
vn -0.3555 0.9331 -0.0544
vn -0.8349 -0.5434 -0.0874
vn -0.8349 -0.5433 -0.0878
vn -0.8379 -0.5385 -0.0895
vn -0.8349 -0.5434 0.0874
vn -0.8270 -0.5580 -0.0685
vn -0.8263 -0.5592 -0.0673
vn -0.8258 -0.5600 -0.0665
vn -0.8256 -0.5603 0.0663
vn -0.8256 -0.5603 -0.0663
vn -0.8381 -0.5381 -0.0895
vn 0.8428 0.5344 0.0640
vn 0.8428 0.5344 -0.0640
vn 0.3574 -0.9324 -0.0539
vn -0.0384 -0.0752 0.9964
vn 0.3574 -0.9324 0.0539
vn 0.0496 0.0967 0.9941
vn 0.0496 0.0967 -0.9941
vn -0.0384 -0.0752 -0.9964
vn -0.9802 0.1979 0.0000
vn -0.9779 0.2086 -0.0163
vn 0.9989 -0.0476 0.0000
vn 0.9470 0.0179 0.3208
vn 0.9470 0.0179 -0.3208
vn -0.0181 0.2528 0.9674
vn -0.9779 0.2086 0.0163
vn -0.0181 0.2528 -0.9674
vn -0.3659 0.9306 0.0000
vn 0.6400 0.7684 0.0000
vn 0.6641 0.7012 -0.2595
vn -0.0628 0.6042 -0.7944
vn 0.0000 0.5348 0.8450
vn -0.2634 0.7856 -0.5599
vn -0.0628 0.6042 0.7944
vn -0.2634 0.7856 0.5599
vn 0.6641 0.7012 0.2595
vn 0.0000 0.5348 -0.8450
vn -0.8791 0.4767 0.0000
vn -0.8716 0.4887 -0.0395
vn 0.8864 0.4629 0.0000
vn 0.3587 -0.8977 0.2557
vn 0.5180 0.2453 0.8194
vn -0.0434 0.1979 0.9793
vn -0.8716 0.4887 0.0395
vn -0.0434 0.1979 -0.9793
vn -0.8952 -0.3189 -0.3112
vn -0.9341 -0.2400 -0.2642
vn 0.4176 0.2169 0.8824
vn 0.1430 0.9849 -0.0974
vn 0.4176 0.2169 -0.8824
vn 0.3587 -0.8977 -0.2557
vn 0.5180 0.2453 -0.8194
vn 0.1430 0.9849 0.0974
vn 0.0715 0.1405 0.9875
vn -0.0610 -0.0015 0.9981
vn -0.8962 -0.2358 0.3758
vn -0.9279 -0.1549 0.3391
vn -0.9342 -0.2398 0.2642
vn -0.8953 -0.3189 0.3111
vn -0.9279 -0.1549 -0.3391
vn -0.8963 -0.2353 -0.3758
vn 0.9184 0.2268 0.3242
vn 0.9184 0.2268 -0.3242
vn -0.0137 -0.9971 0.0742
vn 0.0031 0.9962 -0.0873
vn -0.0610 -0.0015 -0.9981
vn -0.0137 -0.9971 -0.0742
vn 0.0715 0.1405 -0.9875
vn 0.0031 0.9962 0.0873
vn 0.7350 -0.6578 -0.1649
vn -0.6317 0.7683 0.1033
vn 0.1084 -0.0807 -0.9908
vn -0.0570 0.2237 0.9730
vn 0.1084 -0.0807 0.9908
vn -0.6317 0.7683 -0.1033
vn -0.0570 0.2237 -0.9730
vn 0.7350 -0.6578 0.1649
usemtl Material.012
s 1
f 1/1/1 2/2/1 3/3/1 4/4/1
f 5/5/2 6/6/2 7/7/2 8/8/2
f 9/9/3 10/10/3 11/11/3 12/12/3
f 13/13/4 14/14/4 15/15/4 16/16/4
f 17/17/5 18/18/5 19/19/5 20/20/5
f 21/21/6 22/22/6 15/23/6 14/24/6
f 23/25/7 21/21/7 14/24/7 24/26/7
f 25/27/5 26/28/5 27/29/5 28/30/5
f 29/31/8 24/32/8 14/14/8 13/13/8
f 4/33/9 3/34/9 30/35/9 31/36/9
f 12/37/10 11/38/10 24/32/10 29/31/10
f 32/39/11 33/40/11 34/41/11 35/42/11
f 26/28/5 17/17/5 20/20/5 27/29/5
f 31/36/12 30/35/12 6/6/12 5/5/12
f 36/43/13 35/44/13 37/45/13 38/46/13
f 39/47/14 40/48/14 41/49/14 42/50/14
f 40/51/15 43/52/15 44/53/15 41/54/15
f 45/55/16 32/56/16 35/44/16 36/43/16
f 43/57/17 46/58/17 47/59/17 44/60/17
f 46/58/18 45/55/18 36/43/18 47/59/18
f 33/61/19 48/62/19 49/63/19 34/64/19
f 48/62/20 39/47/20 42/50/21 49/63/21
f 34/64/22 49/63/22 50/65/22 51/66/22
f 36/67/23 49/63/23 42/50/23 47/68/23
f 52/69/5 53/70/5 54/71/5 55/72/5
f 55/72/5 54/71/5 17/17/5 26/28/5
f 56/73/5 52/69/5 55/72/5 57/74/5
f 57/74/5 55/72/5 26/28/5 25/27/5
f 6/75/7 30/76/7 58/77/7 59/78/7
f 59/78/7 58/77/7 21/21/7 23/25/7
f 30/76/24 3/3/24 2/2/24 58/77/24
f 58/77/25 2/2/25 22/22/25 21/21/25
f 53/70/5 60/79/5 61/80/5 54/71/5
f 54/71/5 61/80/5 18/18/5 17/17/5
f 8/81/26 7/82/26 62/83/26 63/84/26
f 63/84/27 62/83/27 10/10/27 9/9/27
f 16/85/28 15/23/28 22/22/28 64/86/28
f 64/86/29 22/22/29 2/2/29 1/1/29
f 65/87/30 66/88/30 67/89/30 68/90/30
f 69/91/31 70/92/31 71/93/31 72/94/31
f 41/54/32 44/53/32 73/95/32 74/96/32
f 47/97/33 42/98/33 75/99/33 76/100/33
f 35/42/34 34/41/34 51/101/34 37/102/34
f 42/50/35 41/49/35 74/103/35 75/104/35
f 44/60/36 47/59/36 76/105/36 73/106/36
f 49/107/37 36/108/37 38/109/37 50/110/37
f 72/111/38 71/112/39 77/113/40 78/114/38
f 79/115/41 72/111/42 78/114/42 80/116/43
f 70/117/44 81/118/44 82/119/44 71/120/44
f 83/121/45 84/122/45 85/123/45 86/124/45
f 81/125/46 87/126/46 79/127/46 82/128/46
f 84/129/47 65/130/47 68/131/47 85/132/47
f 66/133/48 83/134/48 86/135/48 67/136/48
f 87/137/49 69/138/49 72/139/49 79/140/49
f 88/141/50 89/142/50 90/143/50 91/144/50
f 92/145/51 80/146/51 93/147/51 94/148/51
f 68/149/52 67/150/53 95/151/54 89/152/52
f 71/112/39 82/153/55 92/154/55 77/113/40
f 86/155/56 85/156/57 88/157/58 96/158/56
f 82/153/59 79/115/41 80/116/43 92/154/59
f 85/156/57 68/149/60 89/152/60 88/157/58
f 67/150/53 86/155/61 96/158/61 95/151/54
f 97/159/62 91/160/62 90/161/62 98/162/62
f 99/163/63 94/164/63 93/165/63 100/166/63
f 95/167/64 96/168/64 97/169/64 98/170/64
f 80/171/65 78/172/65 100/173/65 93/174/65
f 78/175/66 77/176/66 99/177/66 100/178/66
f 89/179/67 95/180/67 98/181/67 90/182/67
f 77/183/68 92/184/68 94/185/68 99/186/68
f 96/187/69 88/188/69 91/189/69 97/190/69
f 59/191/70 23/192/70 101/193/70 102/194/70
f 6/195/71 59/191/71 102/194/71 103/196/71
f 10/10/72 62/83/72 104/197/72 105/198/72
f 11/11/73 10/10/73 105/198/73 106/199/73
f 62/83/74 7/82/74 107/200/74 104/197/74
f 24/32/75 11/38/75 106/201/75 108/202/75
f 23/192/76 24/203/76 108/204/76 101/193/76
f 7/7/77 6/6/77 103/205/77 107/206/77
f 25/207/78 64/86/78 1/1/78 57/208/78
f 28/209/78 16/85/78 64/86/78 25/207/78
f 61/210/79 63/84/79 9/9/79 18/211/79
f 60/212/80 8/81/80 63/84/80 61/210/80
f 52/213/81 31/36/81 5/5/81 53/214/81
f 19/215/82 12/37/82 29/31/82 20/216/82
f 56/217/83 4/4/83 31/218/83 52/219/83
f 20/216/84 29/31/84 13/13/84 27/220/84
f 27/221/85 13/222/85 16/85/85 28/209/85
f 18/211/86 9/9/86 12/12/86 19/223/86
f 53/214/87 5/5/87 8/8/87 60/224/87
f 57/208/78 1/1/78 4/4/78 56/217/78
f 102/225/88 101/226/88 39/47/20 48/62/20
f 103/227/89 102/225/89 48/62/89 33/61/89
f 105/198/90 104/197/90 45/55/90 46/58/90
f 106/228/91 105/229/91 109/230/91 110/231/91
f 45/232/92 104/233/92 111/234/92 112/235/92
f 108/202/93 106/201/93 43/52/93 40/51/93
f 101/226/94 108/236/94 40/48/94 39/47/94
f 107/206/95 103/205/95 33/40/95 32/39/95
f 109/237/96 113/238/96 114/239/96 115/240/96
f 113/238/97 116/241/97 117/242/97 114/239/97
f 43/52/98 106/201/98 110/243/98 116/244/98
f 46/245/99 43/246/99 116/247/99 113/248/99
f 107/206/100 32/39/100 118/249/100 119/250/100
f 104/251/101 107/252/101 119/253/101 111/254/101
f 105/255/102 46/256/102 113/257/102 109/258/102
f 32/259/103 45/260/103 112/261/103 118/262/103
f 117/263/104 120/264/104 121/265/104 122/266/104
f 123/267/105 124/268/105 125/269/105 126/270/105
f 111/271/106 119/272/106 127/273/106 124/274/106
f 119/272/107 118/275/107 128/276/107 127/273/107
f 118/275/108 112/277/108 123/278/108 128/276/108
f 112/277/109 111/271/109 124/274/109 123/278/109
f 116/241/110 110/279/110 120/280/110 117/242/110
f 110/279/111 109/237/111 115/240/111 120/280/111
f 121/281/112 129/282/112 130/283/112 122/284/112
f 125/285/113 131/286/113 132/287/113 126/288/113
f 120/289/114 115/290/114 129/291/114 121/292/114
f 114/293/115 117/294/115 122/295/115 130/296/115
f 115/297/116 114/298/116 130/299/116 129/300/116
f 124/301/117 127/302/117 131/303/117 125/304/117
f 127/305/118 128/306/118 132/307/118 131/308/118
f 128/309/119 123/310/119 126/311/119 132/312/119
f 73/313/120 76/314/120 83/134/120 66/133/120
f 75/104/121 74/103/121 65/130/121 84/129/121
f 76/100/122 75/99/122 84/122/122 83/121/122
f 74/96/123 73/95/123 66/88/123 65/87/123
f 50/110/124 38/109/124 69/138/124 87/137/124
f 51/66/125 50/65/125 87/126/125 81/125/125
f 37/102/126 51/101/126 81/118/126 70/117/126
f 38/315/127 37/316/127 70/92/127 69/91/127
